<svg width="120" height="121" viewBox="0 0 120 121" fill="none" xmlns="http://www.w3.org/2000/svg">
<g id="Frame 5581">
<circle id="Ellipse 1" cx="60" cy="60.5" r="60" fill="white"/>
<path id="play" d="M60 10.5C32.4 10.5 10 32.9 10 60.5C10 88.1 32.4 110.5 60 110.5C87.6 110.5 110 88.1 110 60.5C110 32.9 87.6 10.5 60 10.5ZM60 100.5C37.95 100.5 20 82.55 20 60.5C20 38.45 37.95 20.5 60 20.5C82.05 20.5 100 38.45 100 60.5C100 82.55 82.05 100.5 60 100.5ZM47.5 83L82.5 60.5L47.5 38V83Z" fill="#27166F"/>
</g>
</svg>
